<mxfile host="app.diagrams.net" agent="Mozilla/5.0 (Windows NT 10.0; Win64; x64) AppleWebKit/537.36 (KHTML, like Gecko) Chrome/129.0.0.0 Safari/537.36" version="24.7.16">
  <diagram name="PÃ¡gina-1" id="51_oMn3GFBtb_HJmE6PP">
    <mxGraphModel dx="2574" dy="786" grid="1" gridSize="10" guides="1" tooltips="1" connect="1" arrows="1" fold="1" page="1" pageScale="1" pageWidth="900" pageHeight="1600" math="0" shadow="0">
      <root>
        <mxCell id="0" />
        <mxCell id="1" parent="0" />
        <mxCell id="PC6QoRdUxJygeGnjiyWu-1" value="" style="shape=table;startSize=0;container=1;collapsible=0;childLayout=tableLayout;" parent="1" vertex="1">
          <mxGeometry x="-150" y="380" width="2760" height="40" as="geometry" />
        </mxCell>
        <mxCell id="PC6QoRdUxJygeGnjiyWu-2" value="" style="shape=tableRow;horizontal=0;startSize=0;swimlaneHead=0;swimlaneBody=0;strokeColor=inherit;top=0;left=0;bottom=0;right=0;collapsible=0;dropTarget=0;fillColor=none;points=[[0,0.5],[1,0.5]];portConstraint=eastwest;" parent="PC6QoRdUxJygeGnjiyWu-1" vertex="1">
          <mxGeometry width="2760" height="40" as="geometry" />
        </mxCell>
        <mxCell id="PC6QoRdUxJygeGnjiyWu-3" value="C" style="shape=partialRectangle;html=1;whiteSpace=wrap;connectable=0;strokeColor=inherit;overflow=hidden;fillColor=none;top=0;left=0;bottom=0;right=0;pointerEvents=1;" parent="PC6QoRdUxJygeGnjiyWu-2" vertex="1">
          <mxGeometry width="60" height="40" as="geometry">
            <mxRectangle width="60" height="40" as="alternateBounds" />
          </mxGeometry>
        </mxCell>
        <mxCell id="PC6QoRdUxJygeGnjiyWu-4" value="O" style="shape=partialRectangle;html=1;whiteSpace=wrap;connectable=0;strokeColor=inherit;overflow=hidden;fillColor=none;top=0;left=0;bottom=0;right=0;pointerEvents=1;" parent="PC6QoRdUxJygeGnjiyWu-2" vertex="1">
          <mxGeometry x="60" width="60" height="40" as="geometry">
            <mxRectangle width="60" height="40" as="alternateBounds" />
          </mxGeometry>
        </mxCell>
        <mxCell id="PC6QoRdUxJygeGnjiyWu-5" value="M" style="shape=partialRectangle;html=1;whiteSpace=wrap;connectable=0;strokeColor=inherit;overflow=hidden;fillColor=none;top=0;left=0;bottom=0;right=0;pointerEvents=1;" parent="PC6QoRdUxJygeGnjiyWu-2" vertex="1">
          <mxGeometry x="120" width="60" height="40" as="geometry">
            <mxRectangle width="60" height="40" as="alternateBounds" />
          </mxGeometry>
        </mxCell>
        <mxCell id="PC6QoRdUxJygeGnjiyWu-6" value="O" style="shape=partialRectangle;html=1;whiteSpace=wrap;connectable=0;strokeColor=inherit;overflow=hidden;fillColor=none;top=0;left=0;bottom=0;right=0;pointerEvents=1;" parent="PC6QoRdUxJygeGnjiyWu-2" vertex="1">
          <mxGeometry x="180" width="60" height="40" as="geometry">
            <mxRectangle width="60" height="40" as="alternateBounds" />
          </mxGeometry>
        </mxCell>
        <mxCell id="PC6QoRdUxJygeGnjiyWu-7" value="Q" style="shape=partialRectangle;html=1;whiteSpace=wrap;connectable=0;strokeColor=inherit;overflow=hidden;fillColor=none;top=0;left=0;bottom=0;right=0;pointerEvents=1;" parent="PC6QoRdUxJygeGnjiyWu-2" vertex="1">
          <mxGeometry x="240" width="60" height="40" as="geometry">
            <mxRectangle width="60" height="40" as="alternateBounds" />
          </mxGeometry>
        </mxCell>
        <mxCell id="PC6QoRdUxJygeGnjiyWu-8" value="U" style="shape=partialRectangle;html=1;whiteSpace=wrap;connectable=0;strokeColor=inherit;overflow=hidden;fillColor=none;top=0;left=0;bottom=0;right=0;pointerEvents=1;" parent="PC6QoRdUxJygeGnjiyWu-2" vertex="1">
          <mxGeometry x="300" width="60" height="40" as="geometry">
            <mxRectangle width="60" height="40" as="alternateBounds" />
          </mxGeometry>
        </mxCell>
        <mxCell id="PC6QoRdUxJygeGnjiyWu-9" value="I" style="shape=partialRectangle;html=1;whiteSpace=wrap;connectable=0;strokeColor=inherit;overflow=hidden;fillColor=none;top=0;left=0;bottom=0;right=0;pointerEvents=1;" parent="PC6QoRdUxJygeGnjiyWu-2" vertex="1">
          <mxGeometry x="360" width="60" height="40" as="geometry">
            <mxRectangle width="60" height="40" as="alternateBounds" />
          </mxGeometry>
        </mxCell>
        <mxCell id="PC6QoRdUxJygeGnjiyWu-10" value="E" style="shape=partialRectangle;html=1;whiteSpace=wrap;connectable=0;strokeColor=inherit;overflow=hidden;fillColor=none;top=0;left=0;bottom=0;right=0;pointerEvents=1;" parent="PC6QoRdUxJygeGnjiyWu-2" vertex="1">
          <mxGeometry x="420" width="60" height="40" as="geometry">
            <mxRectangle width="60" height="40" as="alternateBounds" />
          </mxGeometry>
        </mxCell>
        <mxCell id="PC6QoRdUxJygeGnjiyWu-11" value="R" style="shape=partialRectangle;html=1;whiteSpace=wrap;connectable=0;strokeColor=inherit;overflow=hidden;fillColor=none;top=0;left=0;bottom=0;right=0;pointerEvents=1;" parent="PC6QoRdUxJygeGnjiyWu-2" vertex="1">
          <mxGeometry x="480" width="60" height="40" as="geometry">
            <mxRectangle width="60" height="40" as="alternateBounds" />
          </mxGeometry>
        </mxCell>
        <mxCell id="PC6QoRdUxJygeGnjiyWu-12" value="E" style="shape=partialRectangle;html=1;whiteSpace=wrap;connectable=0;strokeColor=inherit;overflow=hidden;fillColor=none;top=0;left=0;bottom=0;right=0;pointerEvents=1;" parent="PC6QoRdUxJygeGnjiyWu-2" vertex="1">
          <mxGeometry x="540" width="60" height="40" as="geometry">
            <mxRectangle width="60" height="40" as="alternateBounds" />
          </mxGeometry>
        </mxCell>
        <mxCell id="PC6QoRdUxJygeGnjiyWu-13" value="S" style="shape=partialRectangle;html=1;whiteSpace=wrap;connectable=0;strokeColor=inherit;overflow=hidden;fillColor=none;top=0;left=0;bottom=0;right=0;pointerEvents=1;" parent="PC6QoRdUxJygeGnjiyWu-2" vertex="1">
          <mxGeometry x="600" width="60" height="40" as="geometry">
            <mxRectangle width="60" height="40" as="alternateBounds" />
          </mxGeometry>
        </mxCell>
        <mxCell id="PC6QoRdUxJygeGnjiyWu-14" value="Q" style="shape=partialRectangle;html=1;whiteSpace=wrap;connectable=0;strokeColor=inherit;overflow=hidden;fillColor=none;top=0;left=0;bottom=0;right=0;pointerEvents=1;" parent="PC6QoRdUxJygeGnjiyWu-2" vertex="1">
          <mxGeometry x="660" width="60" height="40" as="geometry">
            <mxRectangle width="60" height="40" as="alternateBounds" />
          </mxGeometry>
        </mxCell>
        <mxCell id="PC6QoRdUxJygeGnjiyWu-15" value="U" style="shape=partialRectangle;html=1;whiteSpace=wrap;connectable=0;strokeColor=inherit;overflow=hidden;fillColor=none;top=0;left=0;bottom=0;right=0;pointerEvents=1;" parent="PC6QoRdUxJygeGnjiyWu-2" vertex="1">
          <mxGeometry x="720" width="60" height="40" as="geometry">
            <mxRectangle width="60" height="40" as="alternateBounds" />
          </mxGeometry>
        </mxCell>
        <mxCell id="PC6QoRdUxJygeGnjiyWu-16" value="E" style="shape=partialRectangle;html=1;whiteSpace=wrap;connectable=0;strokeColor=inherit;overflow=hidden;fillColor=none;top=0;left=0;bottom=0;right=0;pointerEvents=1;" parent="PC6QoRdUxJygeGnjiyWu-2" vertex="1">
          <mxGeometry x="780" width="60" height="40" as="geometry">
            <mxRectangle width="60" height="40" as="alternateBounds" />
          </mxGeometry>
        </mxCell>
        <mxCell id="PC6QoRdUxJygeGnjiyWu-17" value="T" style="shape=partialRectangle;html=1;whiteSpace=wrap;connectable=0;strokeColor=inherit;overflow=hidden;fillColor=none;top=0;left=0;bottom=0;right=0;pointerEvents=1;" parent="PC6QoRdUxJygeGnjiyWu-2" vertex="1">
          <mxGeometry x="840" width="60" height="40" as="geometry">
            <mxRectangle width="60" height="40" as="alternateBounds" />
          </mxGeometry>
        </mxCell>
        <mxCell id="PC6QoRdUxJygeGnjiyWu-18" value="E" style="shape=partialRectangle;html=1;whiteSpace=wrap;connectable=0;strokeColor=inherit;overflow=hidden;fillColor=none;top=0;left=0;bottom=0;right=0;pointerEvents=1;" parent="PC6QoRdUxJygeGnjiyWu-2" vertex="1">
          <mxGeometry x="900" width="60" height="40" as="geometry">
            <mxRectangle width="60" height="40" as="alternateBounds" />
          </mxGeometry>
        </mxCell>
        <mxCell id="PC6QoRdUxJygeGnjiyWu-19" value="Q" style="shape=partialRectangle;html=1;whiteSpace=wrap;connectable=0;strokeColor=inherit;overflow=hidden;fillColor=none;top=0;left=0;bottom=0;right=0;pointerEvents=1;" parent="PC6QoRdUxJygeGnjiyWu-2" vertex="1">
          <mxGeometry x="960" width="60" height="40" as="geometry">
            <mxRectangle width="60" height="40" as="alternateBounds" />
          </mxGeometry>
        </mxCell>
        <mxCell id="PC6QoRdUxJygeGnjiyWu-20" value="U" style="shape=partialRectangle;html=1;whiteSpace=wrap;connectable=0;strokeColor=inherit;overflow=hidden;fillColor=none;top=0;left=0;bottom=0;right=0;pointerEvents=1;" parent="PC6QoRdUxJygeGnjiyWu-2" vertex="1">
          <mxGeometry x="1020" width="60" height="40" as="geometry">
            <mxRectangle width="60" height="40" as="alternateBounds" />
          </mxGeometry>
        </mxCell>
        <mxCell id="PC6QoRdUxJygeGnjiyWu-21" value="I" style="shape=partialRectangle;html=1;whiteSpace=wrap;connectable=0;strokeColor=inherit;overflow=hidden;fillColor=none;top=0;left=0;bottom=0;right=0;pointerEvents=1;" parent="PC6QoRdUxJygeGnjiyWu-2" vertex="1">
          <mxGeometry x="1080" width="60" height="40" as="geometry">
            <mxRectangle width="60" height="40" as="alternateBounds" />
          </mxGeometry>
        </mxCell>
        <mxCell id="PC6QoRdUxJygeGnjiyWu-22" value="E" style="shape=partialRectangle;html=1;whiteSpace=wrap;connectable=0;strokeColor=inherit;overflow=hidden;fillColor=none;top=0;left=0;bottom=0;right=0;pointerEvents=1;" parent="PC6QoRdUxJygeGnjiyWu-2" vertex="1">
          <mxGeometry x="1140" width="60" height="40" as="geometry">
            <mxRectangle width="60" height="40" as="alternateBounds" />
          </mxGeometry>
        </mxCell>
        <mxCell id="PC6QoRdUxJygeGnjiyWu-23" value="R" style="shape=partialRectangle;html=1;whiteSpace=wrap;connectable=0;strokeColor=inherit;overflow=hidden;fillColor=none;top=0;left=0;bottom=0;right=0;pointerEvents=1;" parent="PC6QoRdUxJygeGnjiyWu-2" vertex="1">
          <mxGeometry x="1200" width="60" height="40" as="geometry">
            <mxRectangle width="60" height="40" as="alternateBounds" />
          </mxGeometry>
        </mxCell>
        <mxCell id="PC6QoRdUxJygeGnjiyWu-24" value="A" style="shape=partialRectangle;html=1;whiteSpace=wrap;connectable=0;strokeColor=inherit;overflow=hidden;fillColor=none;top=0;left=0;bottom=0;right=0;pointerEvents=1;" parent="PC6QoRdUxJygeGnjiyWu-2" vertex="1">
          <mxGeometry x="1260" width="60" height="40" as="geometry">
            <mxRectangle width="60" height="40" as="alternateBounds" />
          </mxGeometry>
        </mxCell>
        <mxCell id="PC6QoRdUxJygeGnjiyWu-25" value="S" style="shape=partialRectangle;html=1;whiteSpace=wrap;connectable=0;strokeColor=inherit;overflow=hidden;fillColor=none;top=0;left=0;bottom=0;right=0;pointerEvents=1;" parent="PC6QoRdUxJygeGnjiyWu-2" vertex="1">
          <mxGeometry x="1320" width="60" height="40" as="geometry">
            <mxRectangle width="60" height="40" as="alternateBounds" />
          </mxGeometry>
        </mxCell>
        <mxCell id="PC6QoRdUxJygeGnjiyWu-26" value="I" style="shape=partialRectangle;html=1;whiteSpace=wrap;connectable=0;strokeColor=inherit;overflow=hidden;fillColor=none;top=0;left=0;bottom=0;right=0;pointerEvents=1;" parent="PC6QoRdUxJygeGnjiyWu-2" vertex="1">
          <mxGeometry x="1380" width="60" height="40" as="geometry">
            <mxRectangle width="60" height="40" as="alternateBounds" />
          </mxGeometry>
        </mxCell>
        <mxCell id="PC6QoRdUxJygeGnjiyWu-27" value="Q" style="shape=partialRectangle;html=1;whiteSpace=wrap;connectable=0;strokeColor=inherit;overflow=hidden;fillColor=none;top=0;left=0;bottom=0;right=0;pointerEvents=1;" parent="PC6QoRdUxJygeGnjiyWu-2" vertex="1">
          <mxGeometry x="1440" width="60" height="40" as="geometry">
            <mxRectangle width="60" height="40" as="alternateBounds" />
          </mxGeometry>
        </mxCell>
        <mxCell id="PC6QoRdUxJygeGnjiyWu-28" value="U" style="shape=partialRectangle;html=1;whiteSpace=wrap;connectable=0;strokeColor=inherit;overflow=hidden;fillColor=none;top=0;left=0;bottom=0;right=0;pointerEvents=1;" parent="PC6QoRdUxJygeGnjiyWu-2" vertex="1">
          <mxGeometry x="1500" width="60" height="40" as="geometry">
            <mxRectangle width="60" height="40" as="alternateBounds" />
          </mxGeometry>
        </mxCell>
        <mxCell id="PC6QoRdUxJygeGnjiyWu-29" value="I" style="shape=partialRectangle;html=1;whiteSpace=wrap;connectable=0;strokeColor=inherit;overflow=hidden;fillColor=none;top=0;left=0;bottom=0;right=0;pointerEvents=1;" parent="PC6QoRdUxJygeGnjiyWu-2" vertex="1">
          <mxGeometry x="1560" width="60" height="40" as="geometry">
            <mxRectangle width="60" height="40" as="alternateBounds" />
          </mxGeometry>
        </mxCell>
        <mxCell id="PC6QoRdUxJygeGnjiyWu-30" value="E" style="shape=partialRectangle;html=1;whiteSpace=wrap;connectable=0;strokeColor=inherit;overflow=hidden;fillColor=none;top=0;left=0;bottom=0;right=0;pointerEvents=1;" parent="PC6QoRdUxJygeGnjiyWu-2" vertex="1">
          <mxGeometry x="1620" width="60" height="40" as="geometry">
            <mxRectangle width="60" height="40" as="alternateBounds" />
          </mxGeometry>
        </mxCell>
        <mxCell id="PC6QoRdUxJygeGnjiyWu-31" value="N" style="shape=partialRectangle;html=1;whiteSpace=wrap;connectable=0;strokeColor=inherit;overflow=hidden;fillColor=none;top=0;left=0;bottom=0;right=0;pointerEvents=1;" parent="PC6QoRdUxJygeGnjiyWu-2" vertex="1">
          <mxGeometry x="1680" width="60" height="40" as="geometry">
            <mxRectangle width="60" height="40" as="alternateBounds" />
          </mxGeometry>
        </mxCell>
        <mxCell id="PC6QoRdUxJygeGnjiyWu-32" value="Q" style="shape=partialRectangle;html=1;whiteSpace=wrap;connectable=0;strokeColor=inherit;overflow=hidden;fillColor=none;top=0;left=0;bottom=0;right=0;pointerEvents=1;" parent="PC6QoRdUxJygeGnjiyWu-2" vertex="1">
          <mxGeometry x="1740" width="60" height="40" as="geometry">
            <mxRectangle width="60" height="40" as="alternateBounds" />
          </mxGeometry>
        </mxCell>
        <mxCell id="PC6QoRdUxJygeGnjiyWu-33" value="U" style="shape=partialRectangle;html=1;whiteSpace=wrap;connectable=0;strokeColor=inherit;overflow=hidden;fillColor=none;top=0;left=0;bottom=0;right=0;pointerEvents=1;" parent="PC6QoRdUxJygeGnjiyWu-2" vertex="1">
          <mxGeometry x="1800" width="60" height="40" as="geometry">
            <mxRectangle width="60" height="40" as="alternateBounds" />
          </mxGeometry>
        </mxCell>
        <mxCell id="PC6QoRdUxJygeGnjiyWu-34" value="I" style="shape=partialRectangle;html=1;whiteSpace=wrap;connectable=0;strokeColor=inherit;overflow=hidden;fillColor=none;top=0;left=0;bottom=0;right=0;pointerEvents=1;" parent="PC6QoRdUxJygeGnjiyWu-2" vertex="1">
          <mxGeometry x="1860" width="60" height="40" as="geometry">
            <mxRectangle width="60" height="40" as="alternateBounds" />
          </mxGeometry>
        </mxCell>
        <mxCell id="PC6QoRdUxJygeGnjiyWu-35" value="E" style="shape=partialRectangle;html=1;whiteSpace=wrap;connectable=0;strokeColor=inherit;overflow=hidden;fillColor=none;top=0;left=0;bottom=0;right=0;pointerEvents=1;" parent="PC6QoRdUxJygeGnjiyWu-2" vertex="1">
          <mxGeometry x="1920" width="60" height="40" as="geometry">
            <mxRectangle width="60" height="40" as="alternateBounds" />
          </mxGeometry>
        </mxCell>
        <mxCell id="PC6QoRdUxJygeGnjiyWu-36" value="R" style="shape=partialRectangle;html=1;whiteSpace=wrap;connectable=0;strokeColor=inherit;overflow=hidden;fillColor=none;top=0;left=0;bottom=0;right=0;pointerEvents=1;" parent="PC6QoRdUxJygeGnjiyWu-2" vertex="1">
          <mxGeometry x="1980" width="60" height="40" as="geometry">
            <mxRectangle width="60" height="40" as="alternateBounds" />
          </mxGeometry>
        </mxCell>
        <mxCell id="PC6QoRdUxJygeGnjiyWu-37" value="O" style="shape=partialRectangle;html=1;whiteSpace=wrap;connectable=0;strokeColor=inherit;overflow=hidden;fillColor=none;top=0;left=0;bottom=0;right=0;pointerEvents=1;" parent="PC6QoRdUxJygeGnjiyWu-2" vertex="1">
          <mxGeometry x="2040" width="60" height="40" as="geometry">
            <mxRectangle width="60" height="40" as="alternateBounds" />
          </mxGeometry>
        </mxCell>
        <mxCell id="PC6QoRdUxJygeGnjiyWu-38" value="Q" style="shape=partialRectangle;html=1;whiteSpace=wrap;connectable=0;strokeColor=inherit;overflow=hidden;fillColor=none;top=0;left=0;bottom=0;right=0;pointerEvents=1;" parent="PC6QoRdUxJygeGnjiyWu-2" vertex="1">
          <mxGeometry x="2100" width="60" height="40" as="geometry">
            <mxRectangle width="60" height="40" as="alternateBounds" />
          </mxGeometry>
        </mxCell>
        <mxCell id="PC6QoRdUxJygeGnjiyWu-39" value="U" style="shape=partialRectangle;html=1;whiteSpace=wrap;connectable=0;strokeColor=inherit;overflow=hidden;fillColor=none;top=0;left=0;bottom=0;right=0;pointerEvents=1;" parent="PC6QoRdUxJygeGnjiyWu-2" vertex="1">
          <mxGeometry x="2160" width="60" height="40" as="geometry">
            <mxRectangle width="60" height="40" as="alternateBounds" />
          </mxGeometry>
        </mxCell>
        <mxCell id="PC6QoRdUxJygeGnjiyWu-40" value="E" style="shape=partialRectangle;html=1;whiteSpace=wrap;connectable=0;strokeColor=inherit;overflow=hidden;fillColor=none;top=0;left=0;bottom=0;right=0;pointerEvents=1;" parent="PC6QoRdUxJygeGnjiyWu-2" vertex="1">
          <mxGeometry x="2220" width="60" height="40" as="geometry">
            <mxRectangle width="60" height="40" as="alternateBounds" />
          </mxGeometry>
        </mxCell>
        <mxCell id="PC6QoRdUxJygeGnjiyWu-41" value="M" style="shape=partialRectangle;html=1;whiteSpace=wrap;connectable=0;strokeColor=inherit;overflow=hidden;fillColor=none;top=0;left=0;bottom=0;right=0;pointerEvents=1;" parent="PC6QoRdUxJygeGnjiyWu-2" vertex="1">
          <mxGeometry x="2280" width="60" height="40" as="geometry">
            <mxRectangle width="60" height="40" as="alternateBounds" />
          </mxGeometry>
        </mxCell>
        <mxCell id="PC6QoRdUxJygeGnjiyWu-42" value="E" style="shape=partialRectangle;html=1;whiteSpace=wrap;connectable=0;strokeColor=inherit;overflow=hidden;fillColor=none;top=0;left=0;bottom=0;right=0;pointerEvents=1;" parent="PC6QoRdUxJygeGnjiyWu-2" vertex="1">
          <mxGeometry x="2340" width="60" height="40" as="geometry">
            <mxRectangle width="60" height="40" as="alternateBounds" />
          </mxGeometry>
        </mxCell>
        <mxCell id="PC6QoRdUxJygeGnjiyWu-43" value="Q" style="shape=partialRectangle;html=1;whiteSpace=wrap;connectable=0;strokeColor=inherit;overflow=hidden;fillColor=none;top=0;left=0;bottom=0;right=0;pointerEvents=1;" parent="PC6QoRdUxJygeGnjiyWu-2" vertex="1">
          <mxGeometry x="2400" width="60" height="40" as="geometry">
            <mxRectangle width="60" height="40" as="alternateBounds" />
          </mxGeometry>
        </mxCell>
        <mxCell id="PC6QoRdUxJygeGnjiyWu-44" value="U" style="shape=partialRectangle;html=1;whiteSpace=wrap;connectable=0;strokeColor=inherit;overflow=hidden;fillColor=none;top=0;left=0;bottom=0;right=0;pointerEvents=1;" parent="PC6QoRdUxJygeGnjiyWu-2" vertex="1">
          <mxGeometry x="2460" width="60" height="40" as="geometry">
            <mxRectangle width="60" height="40" as="alternateBounds" />
          </mxGeometry>
        </mxCell>
        <mxCell id="PC6QoRdUxJygeGnjiyWu-45" value="I" style="shape=partialRectangle;html=1;whiteSpace=wrap;connectable=0;strokeColor=inherit;overflow=hidden;fillColor=none;top=0;left=0;bottom=0;right=0;pointerEvents=1;" parent="PC6QoRdUxJygeGnjiyWu-2" vertex="1">
          <mxGeometry x="2520" width="60" height="40" as="geometry">
            <mxRectangle width="60" height="40" as="alternateBounds" />
          </mxGeometry>
        </mxCell>
        <mxCell id="PC6QoRdUxJygeGnjiyWu-46" value="E" style="shape=partialRectangle;html=1;whiteSpace=wrap;connectable=0;strokeColor=inherit;overflow=hidden;fillColor=none;top=0;left=0;bottom=0;right=0;pointerEvents=1;" parent="PC6QoRdUxJygeGnjiyWu-2" vertex="1">
          <mxGeometry x="2580" width="60" height="40" as="geometry">
            <mxRectangle width="60" height="40" as="alternateBounds" />
          </mxGeometry>
        </mxCell>
        <mxCell id="PC6QoRdUxJygeGnjiyWu-47" value="R" style="shape=partialRectangle;html=1;whiteSpace=wrap;connectable=0;strokeColor=inherit;overflow=hidden;fillColor=none;top=0;left=0;bottom=0;right=0;pointerEvents=1;" parent="PC6QoRdUxJygeGnjiyWu-2" vertex="1">
          <mxGeometry x="2640" width="60" height="40" as="geometry">
            <mxRectangle width="60" height="40" as="alternateBounds" />
          </mxGeometry>
        </mxCell>
        <mxCell id="PC6QoRdUxJygeGnjiyWu-48" value="A" style="shape=partialRectangle;html=1;whiteSpace=wrap;connectable=0;strokeColor=inherit;overflow=hidden;fillColor=none;top=0;left=0;bottom=0;right=0;pointerEvents=1;" parent="PC6QoRdUxJygeGnjiyWu-2" vertex="1">
          <mxGeometry x="2700" width="60" height="40" as="geometry">
            <mxRectangle width="60" height="40" as="alternateBounds" />
          </mxGeometry>
        </mxCell>
        <mxCell id="PC6QoRdUxJygeGnjiyWu-49" value="" style="shape=table;startSize=0;container=1;collapsible=0;childLayout=tableLayout;" parent="1" vertex="1">
          <mxGeometry x="-180" y="1200" width="1860" height="40" as="geometry" />
        </mxCell>
        <mxCell id="PC6QoRdUxJygeGnjiyWu-50" value="" style="shape=tableRow;horizontal=0;startSize=0;swimlaneHead=0;swimlaneBody=0;strokeColor=inherit;top=0;left=0;bottom=0;right=0;collapsible=0;dropTarget=0;fillColor=none;points=[[0,0.5],[1,0.5]];portConstraint=eastwest;" parent="PC6QoRdUxJygeGnjiyWu-49" vertex="1">
          <mxGeometry width="1860" height="40" as="geometry" />
        </mxCell>
        <mxCell id="PC6QoRdUxJygeGnjiyWu-51" value="C" style="shape=partialRectangle;html=1;whiteSpace=wrap;connectable=0;strokeColor=inherit;overflow=hidden;fillColor=none;top=0;left=0;bottom=0;right=0;pointerEvents=1;" parent="PC6QoRdUxJygeGnjiyWu-50" vertex="1">
          <mxGeometry width="60" height="40" as="geometry">
            <mxRectangle width="60" height="40" as="alternateBounds" />
          </mxGeometry>
        </mxCell>
        <mxCell id="PC6QoRdUxJygeGnjiyWu-52" value="O" style="shape=partialRectangle;html=1;whiteSpace=wrap;connectable=0;strokeColor=inherit;overflow=hidden;fillColor=none;top=0;left=0;bottom=0;right=0;pointerEvents=1;" parent="PC6QoRdUxJygeGnjiyWu-50" vertex="1">
          <mxGeometry x="60" width="60" height="40" as="geometry">
            <mxRectangle width="60" height="40" as="alternateBounds" />
          </mxGeometry>
        </mxCell>
        <mxCell id="PC6QoRdUxJygeGnjiyWu-53" value="M" style="shape=partialRectangle;html=1;whiteSpace=wrap;connectable=0;strokeColor=inherit;overflow=hidden;fillColor=none;top=0;left=0;bottom=0;right=0;pointerEvents=1;" parent="PC6QoRdUxJygeGnjiyWu-50" vertex="1">
          <mxGeometry x="120" width="60" height="40" as="geometry">
            <mxRectangle width="60" height="40" as="alternateBounds" />
          </mxGeometry>
        </mxCell>
        <mxCell id="PC6QoRdUxJygeGnjiyWu-54" value="O" style="shape=partialRectangle;html=1;whiteSpace=wrap;connectable=0;strokeColor=inherit;overflow=hidden;fillColor=none;top=0;left=0;bottom=0;right=0;pointerEvents=1;" parent="PC6QoRdUxJygeGnjiyWu-50" vertex="1">
          <mxGeometry x="180" width="60" height="40" as="geometry">
            <mxRectangle width="60" height="40" as="alternateBounds" />
          </mxGeometry>
        </mxCell>
        <mxCell id="PC6QoRdUxJygeGnjiyWu-55" value="Q" style="shape=partialRectangle;html=1;whiteSpace=wrap;connectable=0;strokeColor=inherit;overflow=hidden;fillColor=none;top=0;left=0;bottom=0;right=0;pointerEvents=1;" parent="PC6QoRdUxJygeGnjiyWu-50" vertex="1">
          <mxGeometry x="240" width="60" height="40" as="geometry">
            <mxRectangle width="60" height="40" as="alternateBounds" />
          </mxGeometry>
        </mxCell>
        <mxCell id="PC6QoRdUxJygeGnjiyWu-56" value="U" style="shape=partialRectangle;html=1;whiteSpace=wrap;connectable=0;strokeColor=inherit;overflow=hidden;fillColor=none;top=0;left=0;bottom=0;right=0;pointerEvents=1;" parent="PC6QoRdUxJygeGnjiyWu-50" vertex="1">
          <mxGeometry x="300" width="60" height="40" as="geometry">
            <mxRectangle width="60" height="40" as="alternateBounds" />
          </mxGeometry>
        </mxCell>
        <mxCell id="PC6QoRdUxJygeGnjiyWu-57" value="I" style="shape=partialRectangle;html=1;whiteSpace=wrap;connectable=0;strokeColor=inherit;overflow=hidden;fillColor=none;top=0;left=0;bottom=0;right=0;pointerEvents=1;" parent="PC6QoRdUxJygeGnjiyWu-50" vertex="1">
          <mxGeometry x="360" width="60" height="40" as="geometry">
            <mxRectangle width="60" height="40" as="alternateBounds" />
          </mxGeometry>
        </mxCell>
        <mxCell id="PC6QoRdUxJygeGnjiyWu-58" value="E" style="shape=partialRectangle;html=1;whiteSpace=wrap;connectable=0;strokeColor=inherit;overflow=hidden;fillColor=none;top=0;left=0;bottom=0;right=0;pointerEvents=1;" parent="PC6QoRdUxJygeGnjiyWu-50" vertex="1">
          <mxGeometry x="420" width="60" height="40" as="geometry">
            <mxRectangle width="60" height="40" as="alternateBounds" />
          </mxGeometry>
        </mxCell>
        <mxCell id="PC6QoRdUxJygeGnjiyWu-59" value="R" style="shape=partialRectangle;html=1;whiteSpace=wrap;connectable=0;strokeColor=inherit;overflow=hidden;fillColor=none;top=0;left=0;bottom=0;right=0;pointerEvents=1;" parent="PC6QoRdUxJygeGnjiyWu-50" vertex="1">
          <mxGeometry x="480" width="60" height="40" as="geometry">
            <mxRectangle width="60" height="40" as="alternateBounds" />
          </mxGeometry>
        </mxCell>
        <mxCell id="PC6QoRdUxJygeGnjiyWu-60" value="E" style="shape=partialRectangle;html=1;whiteSpace=wrap;connectable=0;strokeColor=inherit;overflow=hidden;fillColor=none;top=0;left=0;bottom=0;right=0;pointerEvents=1;" parent="PC6QoRdUxJygeGnjiyWu-50" vertex="1">
          <mxGeometry x="540" width="60" height="40" as="geometry">
            <mxRectangle width="60" height="40" as="alternateBounds" />
          </mxGeometry>
        </mxCell>
        <mxCell id="PC6QoRdUxJygeGnjiyWu-61" value="S" style="shape=partialRectangle;html=1;whiteSpace=wrap;connectable=0;strokeColor=inherit;overflow=hidden;fillColor=none;top=0;left=0;bottom=0;right=0;pointerEvents=1;" parent="PC6QoRdUxJygeGnjiyWu-50" vertex="1">
          <mxGeometry x="600" width="60" height="40" as="geometry">
            <mxRectangle width="60" height="40" as="alternateBounds" />
          </mxGeometry>
        </mxCell>
        <mxCell id="PC6QoRdUxJygeGnjiyWu-62" value="Q" style="shape=partialRectangle;html=1;whiteSpace=wrap;connectable=0;strokeColor=inherit;overflow=hidden;fillColor=none;top=0;left=0;bottom=0;right=0;pointerEvents=1;" parent="PC6QoRdUxJygeGnjiyWu-50" vertex="1">
          <mxGeometry x="660" width="60" height="40" as="geometry">
            <mxRectangle width="60" height="40" as="alternateBounds" />
          </mxGeometry>
        </mxCell>
        <mxCell id="PC6QoRdUxJygeGnjiyWu-63" value="U" style="shape=partialRectangle;html=1;whiteSpace=wrap;connectable=0;strokeColor=inherit;overflow=hidden;fillColor=none;top=0;left=0;bottom=0;right=0;pointerEvents=1;" parent="PC6QoRdUxJygeGnjiyWu-50" vertex="1">
          <mxGeometry x="720" width="60" height="40" as="geometry">
            <mxRectangle width="60" height="40" as="alternateBounds" />
          </mxGeometry>
        </mxCell>
        <mxCell id="PC6QoRdUxJygeGnjiyWu-64" value="E" style="shape=partialRectangle;html=1;whiteSpace=wrap;connectable=0;strokeColor=inherit;overflow=hidden;fillColor=none;top=0;left=0;bottom=0;right=0;pointerEvents=1;" parent="PC6QoRdUxJygeGnjiyWu-50" vertex="1">
          <mxGeometry x="780" width="60" height="40" as="geometry">
            <mxRectangle width="60" height="40" as="alternateBounds" />
          </mxGeometry>
        </mxCell>
        <mxCell id="PC6QoRdUxJygeGnjiyWu-65" value="T" style="shape=partialRectangle;html=1;whiteSpace=wrap;connectable=0;strokeColor=inherit;overflow=hidden;fillColor=none;top=0;left=0;bottom=0;right=0;pointerEvents=1;" parent="PC6QoRdUxJygeGnjiyWu-50" vertex="1">
          <mxGeometry x="840" width="60" height="40" as="geometry">
            <mxRectangle width="60" height="40" as="alternateBounds" />
          </mxGeometry>
        </mxCell>
        <mxCell id="PC6QoRdUxJygeGnjiyWu-66" value="E" style="shape=partialRectangle;html=1;whiteSpace=wrap;connectable=0;strokeColor=inherit;overflow=hidden;fillColor=none;top=0;left=0;bottom=0;right=0;pointerEvents=1;" parent="PC6QoRdUxJygeGnjiyWu-50" vertex="1">
          <mxGeometry x="900" width="60" height="40" as="geometry">
            <mxRectangle width="60" height="40" as="alternateBounds" />
          </mxGeometry>
        </mxCell>
        <mxCell id="PC6QoRdUxJygeGnjiyWu-67" value="0+4+5" style="shape=partialRectangle;html=1;whiteSpace=wrap;connectable=0;strokeColor=inherit;overflow=hidden;fillColor=none;top=0;left=0;bottom=0;right=0;pointerEvents=1;" parent="PC6QoRdUxJygeGnjiyWu-50" vertex="1">
          <mxGeometry x="960" width="60" height="40" as="geometry">
            <mxRectangle width="60" height="40" as="alternateBounds" />
          </mxGeometry>
        </mxCell>
        <mxCell id="PC6QoRdUxJygeGnjiyWu-68" value="1+A" style="shape=partialRectangle;html=1;whiteSpace=wrap;connectable=0;strokeColor=inherit;overflow=hidden;fillColor=none;top=0;left=0;bottom=0;right=0;pointerEvents=1;" parent="PC6QoRdUxJygeGnjiyWu-50" vertex="1">
          <mxGeometry x="1020" width="60" height="40" as="geometry">
            <mxRectangle width="60" height="40" as="alternateBounds" />
          </mxGeometry>
        </mxCell>
        <mxCell id="PC6QoRdUxJygeGnjiyWu-69" value="0+3+1" style="shape=partialRectangle;html=1;whiteSpace=wrap;connectable=0;strokeColor=inherit;overflow=hidden;fillColor=none;top=0;left=0;bottom=0;right=0;pointerEvents=1;" parent="PC6QoRdUxJygeGnjiyWu-50" vertex="1">
          <mxGeometry x="1080" width="60" height="40" as="geometry">
            <mxRectangle width="60" height="40" as="alternateBounds" />
          </mxGeometry>
        </mxCell>
        <mxCell id="PC6QoRdUxJygeGnjiyWu-70" value="0+11+1" style="shape=partialRectangle;html=1;whiteSpace=wrap;connectable=0;strokeColor=inherit;overflow=hidden;fillColor=none;top=0;left=0;bottom=0;right=0;pointerEvents=1;" parent="PC6QoRdUxJygeGnjiyWu-50" vertex="1">
          <mxGeometry x="1140" width="60" height="40" as="geometry">
            <mxRectangle width="60" height="40" as="alternateBounds" />
          </mxGeometry>
        </mxCell>
        <mxCell id="PC6QoRdUxJygeGnjiyWu-71" value="0+2+2" style="shape=partialRectangle;html=1;whiteSpace=wrap;connectable=0;strokeColor=inherit;overflow=hidden;fillColor=none;top=0;left=0;bottom=0;right=0;pointerEvents=1;" parent="PC6QoRdUxJygeGnjiyWu-50" vertex="1">
          <mxGeometry x="1200" width="60" height="40" as="geometry">
            <mxRectangle width="60" height="40" as="alternateBounds" />
          </mxGeometry>
        </mxCell>
        <mxCell id="PC6QoRdUxJygeGnjiyWu-72" value="0+8+2" style="shape=partialRectangle;html=1;whiteSpace=wrap;connectable=0;strokeColor=inherit;overflow=hidden;fillColor=none;top=0;left=0;bottom=0;right=0;pointerEvents=1;" parent="PC6QoRdUxJygeGnjiyWu-50" vertex="1">
          <mxGeometry x="1260" width="60" height="40" as="geometry">
            <mxRectangle width="60" height="40" as="alternateBounds" />
          </mxGeometry>
        </mxCell>
        <mxCell id="PC6QoRdUxJygeGnjiyWu-73" value="1+N" style="shape=partialRectangle;html=1;whiteSpace=wrap;connectable=0;strokeColor=inherit;overflow=hidden;fillColor=none;top=0;left=0;bottom=0;right=0;pointerEvents=1;" parent="PC6QoRdUxJygeGnjiyWu-50" vertex="1">
          <mxGeometry x="1320" width="60" height="40" as="geometry">
            <mxRectangle width="60" height="40" as="alternateBounds" />
          </mxGeometry>
        </mxCell>
        <mxCell id="PC6QoRdUxJygeGnjiyWu-74" value="0+3+5" style="shape=partialRectangle;html=1;whiteSpace=wrap;connectable=0;strokeColor=inherit;overflow=hidden;fillColor=none;top=0;left=0;bottom=0;right=0;pointerEvents=1;" parent="PC6QoRdUxJygeGnjiyWu-50" vertex="1">
          <mxGeometry x="1380" width="60" height="40" as="geometry">
            <mxRectangle width="60" height="40" as="alternateBounds" />
          </mxGeometry>
        </mxCell>
        <mxCell id="PC6QoRdUxJygeGnjiyWu-75" value="1+O" style="shape=partialRectangle;html=1;whiteSpace=wrap;connectable=0;strokeColor=inherit;overflow=hidden;fillColor=none;top=0;left=0;bottom=0;right=0;pointerEvents=1;" parent="PC6QoRdUxJygeGnjiyWu-50" vertex="1">
          <mxGeometry x="1440" width="60" height="40" as="geometry">
            <mxRectangle width="60" height="40" as="alternateBounds" />
          </mxGeometry>
        </mxCell>
        <mxCell id="PC6QoRdUxJygeGnjiyWu-76" value="O+5+2" style="shape=partialRectangle;html=1;whiteSpace=wrap;connectable=0;strokeColor=inherit;overflow=hidden;fillColor=none;top=0;left=0;bottom=0;right=0;pointerEvents=1;" parent="PC6QoRdUxJygeGnjiyWu-50" vertex="1">
          <mxGeometry x="1500" width="60" height="40" as="geometry">
            <mxRectangle width="60" height="40" as="alternateBounds" />
          </mxGeometry>
        </mxCell>
        <mxCell id="PC6QoRdUxJygeGnjiyWu-77" value="0+6+1" style="shape=partialRectangle;html=1;whiteSpace=wrap;connectable=0;strokeColor=inherit;overflow=hidden;fillColor=none;top=0;left=0;bottom=0;right=0;pointerEvents=1;" parent="PC6QoRdUxJygeGnjiyWu-50" vertex="1">
          <mxGeometry x="1560" width="60" height="40" as="geometry">
            <mxRectangle width="60" height="40" as="alternateBounds" />
          </mxGeometry>
        </mxCell>
        <mxCell id="PC6QoRdUxJygeGnjiyWu-78" value="1+M" style="shape=partialRectangle;html=1;whiteSpace=wrap;connectable=0;strokeColor=inherit;overflow=hidden;fillColor=none;top=0;left=0;bottom=0;right=0;pointerEvents=1;" parent="PC6QoRdUxJygeGnjiyWu-50" vertex="1">
          <mxGeometry x="1620" width="60" height="40" as="geometry">
            <mxRectangle width="60" height="40" as="alternateBounds" />
          </mxGeometry>
        </mxCell>
        <mxCell id="PC6QoRdUxJygeGnjiyWu-79" value="0+4+1" style="shape=partialRectangle;html=1;whiteSpace=wrap;connectable=0;strokeColor=inherit;overflow=hidden;fillColor=none;top=0;left=0;bottom=0;right=0;pointerEvents=1;" parent="PC6QoRdUxJygeGnjiyWu-50" vertex="1">
          <mxGeometry x="1680" width="60" height="40" as="geometry">
            <mxRectangle width="60" height="40" as="alternateBounds" />
          </mxGeometry>
        </mxCell>
        <mxCell id="PC6QoRdUxJygeGnjiyWu-80" value="0+5+5" style="shape=partialRectangle;html=1;whiteSpace=wrap;connectable=0;strokeColor=inherit;overflow=hidden;fillColor=none;top=0;left=0;bottom=0;right=0;pointerEvents=1;" parent="PC6QoRdUxJygeGnjiyWu-50" vertex="1">
          <mxGeometry x="1740" width="60" height="40" as="geometry">
            <mxRectangle width="60" height="40" as="alternateBounds" />
          </mxGeometry>
        </mxCell>
        <mxCell id="PC6QoRdUxJygeGnjiyWu-81" value="1+A" style="shape=partialRectangle;html=1;whiteSpace=wrap;connectable=0;strokeColor=inherit;overflow=hidden;fillColor=none;top=0;left=0;bottom=0;right=0;pointerEvents=1;" parent="PC6QoRdUxJygeGnjiyWu-50" vertex="1">
          <mxGeometry x="1800" width="60" height="40" as="geometry">
            <mxRectangle width="60" height="40" as="alternateBounds" />
          </mxGeometry>
        </mxCell>
        <mxCell id="PFDeG_Y5GB5vJg9dXHqV-3" value="" style="endArrow=classic;html=1;rounded=0;entryX=0.011;entryY=0.075;entryDx=0;entryDy=0;entryPerimeter=0;" edge="1" parent="1" target="PC6QoRdUxJygeGnjiyWu-2">
          <mxGeometry width="50" height="50" relative="1" as="geometry">
            <mxPoint x="-120" y="340" as="sourcePoint" />
            <mxPoint x="-100" y="360" as="targetPoint" />
          </mxGeometry>
        </mxCell>
        <mxCell id="PFDeG_Y5GB5vJg9dXHqV-9" value="" style="endArrow=classic;html=1;rounded=0;entryX=0.011;entryY=0.075;entryDx=0;entryDy=0;entryPerimeter=0;" edge="1" parent="1">
          <mxGeometry width="50" height="50" relative="1" as="geometry">
            <mxPoint x="780" y="337" as="sourcePoint" />
            <mxPoint x="780" y="380" as="targetPoint" />
          </mxGeometry>
        </mxCell>
        <mxCell id="PFDeG_Y5GB5vJg9dXHqV-10" value="" style="endArrow=classic;html=1;rounded=0;entryX=0.445;entryY=1.025;entryDx=0;entryDy=0;entryPerimeter=0;strokeColor=#FF0000;" edge="1" parent="1" target="PC6QoRdUxJygeGnjiyWu-2">
          <mxGeometry width="50" height="50" relative="1" as="geometry">
            <mxPoint x="1078" y="460" as="sourcePoint" />
            <mxPoint x="1090" y="440" as="targetPoint" />
          </mxGeometry>
        </mxCell>
        <mxCell id="PFDeG_Y5GB5vJg9dXHqV-11" value="" style="endArrow=classic;html=1;rounded=0;entryX=0.121;entryY=0.95;entryDx=0;entryDy=0;entryPerimeter=0;strokeColor=#FF0000;" edge="1" parent="1" target="PC6QoRdUxJygeGnjiyWu-2">
          <mxGeometry width="50" height="50" relative="1" as="geometry">
            <mxPoint x="184" y="460" as="sourcePoint" />
            <mxPoint x="190" y="440" as="targetPoint" />
          </mxGeometry>
        </mxCell>
        <mxCell id="PFDeG_Y5GB5vJg9dXHqV-19" value="" style="endArrow=classic;html=1;rounded=0;entryX=0.121;entryY=0.95;entryDx=0;entryDy=0;entryPerimeter=0;strokeColor=#FF00FF;fillColor=#FF6666;" edge="1" parent="1">
          <mxGeometry width="50" height="50" relative="1" as="geometry">
            <mxPoint x="240" y="522" as="sourcePoint" />
            <mxPoint x="240" y="480" as="targetPoint" />
          </mxGeometry>
        </mxCell>
        <mxCell id="PFDeG_Y5GB5vJg9dXHqV-20" value="" style="endArrow=classic;html=1;rounded=0;entryX=0.121;entryY=0.95;entryDx=0;entryDy=0;entryPerimeter=0;strokeColor=#FF00FF;fillColor=#FF6666;" edge="1" parent="1">
          <mxGeometry width="50" height="50" relative="1" as="geometry">
            <mxPoint x="1140" y="522" as="sourcePoint" />
            <mxPoint x="1140" y="480" as="targetPoint" />
          </mxGeometry>
        </mxCell>
        <mxCell id="PFDeG_Y5GB5vJg9dXHqV-23" value="" style="endArrow=classic;html=1;rounded=0;entryX=0.121;entryY=0.95;entryDx=0;entryDy=0;entryPerimeter=0;strokeColor=#0000FF;" edge="1" parent="1">
          <mxGeometry width="50" height="50" relative="1" as="geometry">
            <mxPoint x="300" y="562" as="sourcePoint" />
            <mxPoint x="300" y="520" as="targetPoint" />
          </mxGeometry>
        </mxCell>
        <mxCell id="PFDeG_Y5GB5vJg9dXHqV-25" value="" style="endArrow=classic;html=1;rounded=0;entryX=0.121;entryY=0.95;entryDx=0;entryDy=0;entryPerimeter=0;strokeColor=#0000FF;" edge="1" parent="1">
          <mxGeometry width="50" height="50" relative="1" as="geometry">
            <mxPoint x="1200" y="562" as="sourcePoint" />
            <mxPoint x="1200" y="520" as="targetPoint" />
          </mxGeometry>
        </mxCell>
        <mxCell id="PFDeG_Y5GB5vJg9dXHqV-26" value="" style="endArrow=classic;html=1;rounded=0;entryX=0.121;entryY=0.95;entryDx=0;entryDy=0;entryPerimeter=0;strokeColor=#66CC00;" edge="1" parent="1">
          <mxGeometry width="50" height="50" relative="1" as="geometry">
            <mxPoint x="360" y="602" as="sourcePoint" />
            <mxPoint x="360" y="560" as="targetPoint" />
            <Array as="points">
              <mxPoint x="360" y="602" />
            </Array>
          </mxGeometry>
        </mxCell>
        <mxCell id="PFDeG_Y5GB5vJg9dXHqV-29" value="" style="endArrow=classic;html=1;rounded=0;entryX=0.121;entryY=0.95;entryDx=0;entryDy=0;entryPerimeter=0;strokeColor=#66CC00;" edge="1" parent="1">
          <mxGeometry width="50" height="50" relative="1" as="geometry">
            <mxPoint x="1260" y="602" as="sourcePoint" />
            <mxPoint x="1260" y="560" as="targetPoint" />
          </mxGeometry>
        </mxCell>
        <mxCell id="PFDeG_Y5GB5vJg9dXHqV-30" value="" style="endArrow=classic;html=1;rounded=0;entryX=0.121;entryY=0.95;entryDx=0;entryDy=0;entryPerimeter=0;strokeColor=#7EA6E0;" edge="1" parent="1">
          <mxGeometry width="50" height="50" relative="1" as="geometry">
            <mxPoint x="480" y="640" as="sourcePoint" />
            <mxPoint x="480" y="598" as="targetPoint" />
          </mxGeometry>
        </mxCell>
        <mxCell id="PFDeG_Y5GB5vJg9dXHqV-31" value="" style="endArrow=classic;html=1;rounded=0;entryX=0.121;entryY=0.95;entryDx=0;entryDy=0;entryPerimeter=0;strokeColor=#7EA6E0;" edge="1" parent="1">
          <mxGeometry width="50" height="50" relative="1" as="geometry">
            <mxPoint x="1380" y="642" as="sourcePoint" />
            <mxPoint x="1380" y="600" as="targetPoint" />
          </mxGeometry>
        </mxCell>
        <mxCell id="PFDeG_Y5GB5vJg9dXHqV-32" value="" style="endArrow=classic;html=1;rounded=0;entryX=0.121;entryY=0.95;entryDx=0;entryDy=0;entryPerimeter=0;strokeColor=#FFD966;" edge="1" parent="1">
          <mxGeometry width="50" height="50" relative="1" as="geometry">
            <mxPoint x="600" y="682" as="sourcePoint" />
            <mxPoint x="600" y="640" as="targetPoint" />
          </mxGeometry>
        </mxCell>
        <mxCell id="PFDeG_Y5GB5vJg9dXHqV-33" value="" style="endArrow=classic;html=1;rounded=0;entryX=0.121;entryY=0.95;entryDx=0;entryDy=0;entryPerimeter=0;strokeColor=#FFD966;" edge="1" parent="1">
          <mxGeometry width="50" height="50" relative="1" as="geometry">
            <mxPoint x="1500" y="682" as="sourcePoint" />
            <mxPoint x="1500" y="640" as="targetPoint" />
          </mxGeometry>
        </mxCell>
        <mxCell id="PFDeG_Y5GB5vJg9dXHqV-34" value="" style="endArrow=classic;html=1;rounded=0;entryX=0.121;entryY=0.95;entryDx=0;entryDy=0;entryPerimeter=0;strokeColor=#6600CC;" edge="1" parent="1">
          <mxGeometry width="50" height="50" relative="1" as="geometry">
            <mxPoint x="660" y="722" as="sourcePoint" />
            <mxPoint x="660" y="680" as="targetPoint" />
          </mxGeometry>
        </mxCell>
        <mxCell id="PFDeG_Y5GB5vJg9dXHqV-35" value="" style="endArrow=classic;html=1;rounded=0;entryX=0.121;entryY=0.95;entryDx=0;entryDy=0;entryPerimeter=0;strokeColor=#6600CC;" edge="1" parent="1">
          <mxGeometry width="50" height="50" relative="1" as="geometry">
            <mxPoint x="1560" y="722" as="sourcePoint" />
            <mxPoint x="1560" y="680" as="targetPoint" />
          </mxGeometry>
        </mxCell>
        <mxCell id="PFDeG_Y5GB5vJg9dXHqV-36" value="" style="endArrow=classic;html=1;rounded=0;entryX=0.121;entryY=0.95;entryDx=0;entryDy=0;entryPerimeter=0;strokeColor=#990000;" edge="1" parent="1">
          <mxGeometry width="50" height="50" relative="1" as="geometry">
            <mxPoint x="960" y="762" as="sourcePoint" />
            <mxPoint x="960" y="720" as="targetPoint" />
          </mxGeometry>
        </mxCell>
        <mxCell id="PFDeG_Y5GB5vJg9dXHqV-37" value="" style="endArrow=classic;html=1;rounded=0;entryX=0.121;entryY=0.95;entryDx=0;entryDy=0;entryPerimeter=0;strokeColor=#990000;" edge="1" parent="1">
          <mxGeometry width="50" height="50" relative="1" as="geometry">
            <mxPoint x="1860" y="762" as="sourcePoint" />
            <mxPoint x="1860" y="720" as="targetPoint" />
          </mxGeometry>
        </mxCell>
        <mxCell id="PFDeG_Y5GB5vJg9dXHqV-38" value="" style="endArrow=classic;html=1;rounded=0;entryX=0.121;entryY=0.95;entryDx=0;entryDy=0;entryPerimeter=0;strokeColor=#F19C99;" edge="1" parent="1">
          <mxGeometry width="50" height="50" relative="1" as="geometry">
            <mxPoint x="1010" y="800" as="sourcePoint" />
            <mxPoint x="1010" y="758" as="targetPoint" />
          </mxGeometry>
        </mxCell>
        <mxCell id="PFDeG_Y5GB5vJg9dXHqV-39" value="" style="endArrow=classic;html=1;rounded=0;entryX=0.121;entryY=0.95;entryDx=0;entryDy=0;entryPerimeter=0;strokeColor=#F19C99;" edge="1" parent="1">
          <mxGeometry width="50" height="50" relative="1" as="geometry">
            <mxPoint x="1920" y="800" as="sourcePoint" />
            <mxPoint x="1920" y="758" as="targetPoint" />
          </mxGeometry>
        </mxCell>
        <mxCell id="PFDeG_Y5GB5vJg9dXHqV-40" value="" style="endArrow=classic;html=1;rounded=0;entryX=0.121;entryY=0.95;entryDx=0;entryDy=0;entryPerimeter=0;strokeColor=#00CCCC;" edge="1" parent="1">
          <mxGeometry width="50" height="50" relative="1" as="geometry">
            <mxPoint x="1140" y="842" as="sourcePoint" />
            <mxPoint x="1140" y="800" as="targetPoint" />
          </mxGeometry>
        </mxCell>
        <mxCell id="PFDeG_Y5GB5vJg9dXHqV-41" value="" style="endArrow=classic;html=1;rounded=0;entryX=0.121;entryY=0.95;entryDx=0;entryDy=0;entryPerimeter=0;strokeColor=#00CCCC;" edge="1" parent="1">
          <mxGeometry width="50" height="50" relative="1" as="geometry">
            <mxPoint x="2020" y="842" as="sourcePoint" />
            <mxPoint x="2020" y="800" as="targetPoint" />
          </mxGeometry>
        </mxCell>
        <mxCell id="PFDeG_Y5GB5vJg9dXHqV-43" value="" style="endArrow=classic;html=1;rounded=0;entryX=0.121;entryY=0.95;entryDx=0;entryDy=0;entryPerimeter=0;strokeColor=#009900;" edge="1" parent="1">
          <mxGeometry width="50" height="50" relative="1" as="geometry">
            <mxPoint x="1200" y="882" as="sourcePoint" />
            <mxPoint x="1200" y="840" as="targetPoint" />
          </mxGeometry>
        </mxCell>
        <mxCell id="PFDeG_Y5GB5vJg9dXHqV-44" value="" style="endArrow=classic;html=1;rounded=0;entryX=0.121;entryY=0.95;entryDx=0;entryDy=0;entryPerimeter=0;strokeColor=#009900;" edge="1" parent="1">
          <mxGeometry width="50" height="50" relative="1" as="geometry">
            <mxPoint x="2100" y="882" as="sourcePoint" />
            <mxPoint x="2100" y="840" as="targetPoint" />
          </mxGeometry>
        </mxCell>
        <mxCell id="PFDeG_Y5GB5vJg9dXHqV-45" value="" style="endArrow=classic;html=1;rounded=0;entryX=0.121;entryY=0.95;entryDx=0;entryDy=0;entryPerimeter=0;strokeColor=#004C99;" edge="1" parent="1">
          <mxGeometry width="50" height="50" relative="1" as="geometry">
            <mxPoint x="1260" y="922" as="sourcePoint" />
            <mxPoint x="1260" y="880" as="targetPoint" />
          </mxGeometry>
        </mxCell>
        <mxCell id="PFDeG_Y5GB5vJg9dXHqV-46" value="" style="endArrow=classic;html=1;rounded=0;entryX=0.121;entryY=0.95;entryDx=0;entryDy=0;entryPerimeter=0;strokeColor=#004C99;" edge="1" parent="1">
          <mxGeometry width="50" height="50" relative="1" as="geometry">
            <mxPoint x="2160" y="922" as="sourcePoint" />
            <mxPoint x="2160" y="880" as="targetPoint" />
            <Array as="points">
              <mxPoint x="2160" y="920" />
            </Array>
          </mxGeometry>
        </mxCell>
        <mxCell id="PFDeG_Y5GB5vJg9dXHqV-47" value="" style="endArrow=classic;html=1;rounded=0;entryX=0.121;entryY=0.95;entryDx=0;entryDy=0;entryPerimeter=0;strokeColor=#994C00;" edge="1" parent="1">
          <mxGeometry width="50" height="50" relative="1" as="geometry">
            <mxPoint x="1330" y="962" as="sourcePoint" />
            <mxPoint x="1330" y="920" as="targetPoint" />
          </mxGeometry>
        </mxCell>
        <mxCell id="PFDeG_Y5GB5vJg9dXHqV-49" value="" style="endArrow=classic;html=1;rounded=0;entryX=0.121;entryY=0.95;entryDx=0;entryDy=0;entryPerimeter=0;strokeColor=#994C00;" edge="1" parent="1">
          <mxGeometry width="50" height="50" relative="1" as="geometry">
            <mxPoint x="2220" y="962" as="sourcePoint" />
            <mxPoint x="2220" y="920" as="targetPoint" />
          </mxGeometry>
        </mxCell>
        <mxCell id="PFDeG_Y5GB5vJg9dXHqV-50" value="" style="endArrow=classic;html=1;rounded=0;entryX=0.121;entryY=0.95;entryDx=0;entryDy=0;entryPerimeter=0;strokeColor=#A9C4EB;" edge="1" parent="1">
          <mxGeometry width="50" height="50" relative="1" as="geometry">
            <mxPoint x="1610" y="1002" as="sourcePoint" />
            <mxPoint x="1610" y="960" as="targetPoint" />
          </mxGeometry>
        </mxCell>
        <mxCell id="PFDeG_Y5GB5vJg9dXHqV-51" value="" style="endArrow=classic;html=1;rounded=0;entryX=0.121;entryY=0.95;entryDx=0;entryDy=0;entryPerimeter=0;strokeColor=#A9C4EB;" edge="1" parent="1">
          <mxGeometry width="50" height="50" relative="1" as="geometry">
            <mxPoint x="2540" y="1002" as="sourcePoint" />
            <mxPoint x="2540" y="960" as="targetPoint" />
          </mxGeometry>
        </mxCell>
        <mxCell id="PFDeG_Y5GB5vJg9dXHqV-52" value="" style="endArrow=classic;html=1;rounded=0;entryX=0.121;entryY=0.95;entryDx=0;entryDy=0;entryPerimeter=0;strokeColor=#808080;" edge="1" parent="1">
          <mxGeometry width="50" height="50" relative="1" as="geometry">
            <mxPoint x="1660" y="1042" as="sourcePoint" />
            <mxPoint x="1660" y="1000" as="targetPoint" />
          </mxGeometry>
        </mxCell>
        <mxCell id="PFDeG_Y5GB5vJg9dXHqV-53" value="" style="endArrow=classic;html=1;rounded=0;entryX=0.121;entryY=0.95;entryDx=0;entryDy=0;entryPerimeter=0;strokeColor=#808080;" edge="1" parent="1">
          <mxGeometry width="50" height="50" relative="1" as="geometry">
            <mxPoint x="2620" y="1042" as="sourcePoint" />
            <mxPoint x="2620" y="1000" as="targetPoint" />
          </mxGeometry>
        </mxCell>
      </root>
    </mxGraphModel>
  </diagram>
</mxfile>
